<svg width="25" height="25" viewBox="0 0 25 25" fill="none" xmlns="http://www.w3.org/2000/svg">
<path d="M17.602 2.75737L6.97275 2.75734C6.46254 2.75734 6.07989 2.02205 6.07989 1.28676C6.07989 0.551468 6.46254 0 6.97275 0L17.602 3.03866e-05C18.1122 3.03866e-05 18.6224 0.551498 18.6224 1.47061C18.6224 2.38973 18.1122 2.75737 17.602 2.75737ZM23.9796 13.9706H1.02041C0.510204 13.9706 0 13.4192 0 12.5C0 11.5809 0.382653 11.0295 1.02041 11.0295H23.9796C24.4898 11.0295 25 11.5809 25 12.5C25 13.4192 24.4898 13.9706 23.9796 13.9706ZM17.602 25H7.1003C6.59009 25 6.07989 24.4485 6.07989 23.5294C6.07989 22.6103 6.46254 22.0588 7.1003 22.0588H17.602C18.1122 22.0588 18.6224 22.6103 18.6224 23.5294C18.6224 24.4485 18.1122 25 17.602 25Z" fill="black"/>
</svg>
