<svg width="25" height="25" viewBox="0 0 25 25" fill="none" xmlns="http://www.w3.org/2000/svg">
<g clip-path="url(#clip0_4500_388)">
<path d="M1.22056 24.9999C0.9791 25 0.743045 24.9284 0.54226 24.7943C0.341474 24.6601 0.184978 24.4695 0.0925676 24.2464C0.000156698 24.0233 -0.0240177 23.7778 0.0231023 23.541C0.0702222 23.3042 0.18652 23.0867 0.357284 22.9159L22.9159 0.357339C23.1448 0.128382 23.4554 -0.000244141 23.7792 -0.000244141C24.1029 -0.000244141 24.4135 0.128382 24.6424 0.357339C24.8714 0.586295 25 0.896827 25 1.22062C25 1.54441 24.8714 1.85494 24.6424 2.0839L2.08385 24.6425C1.97058 24.756 1.83601 24.846 1.68786 24.9073C1.53972 24.9687 1.38091 25.0001 1.22056 24.9999Z" fill="white"/>
<path d="M23.7792 24.9999C23.6189 25.0001 23.4601 24.9687 23.3119 24.9073C23.1638 24.846 23.0292 24.756 22.9159 24.6425L0.357339 2.0839C0.128382 1.85494 -0.000244141 1.54441 -0.000244141 1.22062C-0.000244141 0.896827 0.128382 0.586295 0.357339 0.357339C0.586295 0.128382 0.896827 -0.000244141 1.22062 -0.000244141C1.54441 -0.000244141 1.85494 0.128382 2.0839 0.357339L24.6425 22.9159C24.8133 23.0867 24.9296 23.3042 24.9767 23.541C25.0238 23.7778 24.9996 24.0233 24.9072 24.2464C24.8148 24.4695 24.6583 24.6601 24.4575 24.7943C24.2567 24.9284 24.0207 25 23.7792 24.9999Z" fill="white"/>
</g>
<defs>
<clipPath id="clip0_4500_388">
<rect width="25" height="25" fill="white"/>
</clipPath>
</defs>
</svg>
