<svg width="1061" height="1049" viewBox="0 0 1061 1049" fill="none" xmlns="http://www.w3.org/2000/svg">
<g clip-path="url(#clip0_5320_217)">
<mask id="mask0_5320_217" style="mask-type:alpha" maskUnits="userSpaceOnUse" x="-429" y="-53" width="1920" height="1151">
<rect x="-429" y="-53" width="1920" height="1151" fill="#F5F8FD"/>
</mask>
<g mask="url(#mask0_5320_217)">
<circle cx="530.663" cy="525.337" r="81.0143" transform="rotate(-45 530.663 525.337)" stroke="url(#paint0_linear_5320_217)" stroke-width="2"/>
<circle cx="530.663" cy="525.337" r="110.305" transform="rotate(-45 530.663 525.337)" stroke="url(#paint1_linear_5320_217)" stroke-width="2"/>
<circle cx="530.663" cy="525.337" r="139.596" transform="rotate(-45 530.663 525.337)" stroke="url(#paint2_linear_5320_217)" stroke-width="2"/>
<circle cx="530.663" cy="525.337" r="168.887" transform="rotate(-45 530.663 525.337)" stroke="url(#paint3_linear_5320_217)" stroke-width="2"/>
<mask id="path-6-inside-1_5320_217" fill="white">
<path d="M688.738 584.359C689.335 584.581 689.637 585.246 689.411 585.84C676.674 619.261 653.712 647.81 623.801 667.418C623.269 667.767 622.555 667.613 622.21 667.079C621.864 666.544 622.019 665.831 622.551 665.482C652.046 646.143 674.688 617.991 687.252 585.034C687.479 584.44 688.142 584.136 688.738 584.359Z"/>
</mask>
<path d="M688.738 584.359C689.335 584.581 689.637 585.246 689.411 585.84C676.674 619.261 653.712 647.81 623.801 667.418C623.269 667.767 622.555 667.613 622.21 667.079C621.864 666.544 622.019 665.831 622.551 665.482C652.046 646.143 674.688 617.991 687.252 585.034C687.479 584.44 688.142 584.136 688.738 584.359Z" stroke="url(#paint4_linear_5320_217)" stroke-width="4" mask="url(#path-6-inside-1_5320_217)"/>
<circle cx="530.663" cy="525.337" r="198.178" transform="rotate(-45 530.663 525.337)" stroke="url(#paint5_linear_5320_217)" stroke-width="2"/>
<circle cx="530.663" cy="525.337" r="227.468" transform="rotate(-45 530.663 525.337)" stroke="url(#paint6_linear_5320_217)" stroke-width="2"/>
<mask id="path-9-inside-2_5320_217" fill="white">
<path d="M447.288 313.927C447.043 313.305 446.339 312.999 445.718 313.248C423.251 322.246 402.357 334.757 383.816 350.312C383.304 350.742 383.241 351.507 383.674 352.018C384.107 352.528 384.871 352.59 385.384 352.16C403.722 336.776 424.387 324.403 446.607 315.502C447.228 315.253 447.534 314.55 447.288 313.927Z"/>
</mask>
<path d="M447.288 313.927C447.043 313.305 446.339 312.999 445.718 313.248C423.251 322.246 402.357 334.757 383.816 350.312C383.304 350.742 383.241 351.507 383.674 352.018C384.107 352.528 384.871 352.59 385.384 352.16C403.722 336.776 424.387 324.403 446.607 315.502C447.228 315.253 447.534 314.55 447.288 313.927Z" stroke="url(#paint7_linear_5320_217)" stroke-width="4" mask="url(#path-9-inside-2_5320_217)"/>
<circle cx="530.663" cy="525.337" r="256.759" transform="rotate(-45 530.663 525.337)" stroke="url(#paint8_linear_5320_217)" stroke-width="2"/>
<circle cx="530.663" cy="525.337" r="286.05" transform="rotate(-45 530.663 525.337)" stroke="url(#paint9_linear_5320_217)" stroke-width="2"/>
<circle cx="530.663" cy="525.337" r="315.341" transform="rotate(-45 530.663 525.337)" stroke="url(#paint10_linear_5320_217)" stroke-width="2"/>
<circle cx="530.663" cy="525.337" r="344.632" transform="rotate(-45 530.663 525.337)" stroke="url(#paint11_linear_5320_217)" stroke-width="2"/>
<circle cx="530.662" cy="525.337" r="373.922" transform="rotate(-45 530.662 525.337)" stroke="url(#paint12_linear_5320_217)" stroke-width="2"/>
<circle cx="530.663" cy="525.337" r="403.213" transform="rotate(-45 530.663 525.337)" stroke="url(#paint13_linear_5320_217)" stroke-width="2"/>
<circle cx="530.663" cy="525.337" r="432.504" transform="rotate(-45 530.663 525.337)" stroke="url(#paint14_linear_5320_217)" stroke-width="2"/>
<circle cx="530.663" cy="525.337" r="461.795" transform="rotate(-45 530.663 525.337)" stroke="url(#paint15_linear_5320_217)" stroke-width="2"/>
<mask id="path-18-inside-3_5320_217" fill="white">
<path d="M163.687 805.436C163.187 805.817 162.472 805.721 162.092 805.221C132.905 766.786 109.91 724.022 93.9404 678.48C93.7323 677.886 94.0464 677.237 94.6403 677.031C95.2342 676.824 95.8831 677.138 96.0912 677.732C111.982 723.046 134.862 765.596 163.902 803.839C164.283 804.34 164.187 805.054 163.687 805.436Z"/>
</mask>
<path d="M163.687 805.436C163.187 805.817 162.472 805.721 162.092 805.221C132.905 766.786 109.91 724.022 93.9404 678.48C93.7323 677.886 94.0464 677.237 94.6403 677.031C95.2342 676.824 95.8831 677.138 96.0912 677.732C111.982 723.046 134.862 765.596 163.902 803.839C164.283 804.34 164.187 805.054 163.687 805.436Z" stroke="url(#paint16_linear_5320_217)" stroke-opacity="0.8" stroke-width="4" mask="url(#path-18-inside-3_5320_217)"/>
<circle cx="530.663" cy="525.337" r="491.086" transform="rotate(-45 530.663 525.337)" stroke="url(#paint17_linear_5320_217)" stroke-width="2"/>
<mask id="path-20-inside-4_5320_217" fill="white">
<path d="M965.724 752.936C966.268 753.222 966.942 753.012 967.226 752.466C986.544 715.425 1001.07 676.074 1010.44 635.364C1010.58 634.764 1010.21 634.167 1009.61 634.031C1009.01 633.894 1008.41 634.269 1008.27 634.869C998.939 675.392 984.483 714.561 965.254 751.432C964.969 751.977 965.179 752.65 965.724 752.936Z"/>
</mask>
<path d="M965.724 752.936C966.268 753.222 966.942 753.012 967.226 752.466C986.544 715.425 1001.07 676.074 1010.44 635.364C1010.58 634.764 1010.21 634.167 1009.61 634.031C1009.01 633.894 1008.41 634.269 1008.27 634.869C998.939 675.392 984.483 714.561 965.254 751.432C964.969 751.977 965.179 752.65 965.724 752.936Z" stroke="url(#paint18_linear_5320_217)" stroke-width="4" mask="url(#path-20-inside-4_5320_217)"/>
<circle cx="530.663" cy="525.337" r="520.376" transform="rotate(-45 530.663 525.337)" stroke="url(#paint19_linear_5320_217)" stroke-width="2"/>
</g>
</g>
<defs>
<linearGradient id="paint0_linear_5320_217" x1="530.663" y1="443.323" x2="530.663" y2="607.352" gradientUnits="userSpaceOnUse">
<stop stop-color="#E9EFF4" stop-opacity="0"/>
<stop offset="0.25" stop-color="#FEFEFF"/>
<stop offset="0.5" stop-color="#E9EFF4" stop-opacity="0"/>
<stop offset="0.75" stop-color="#A6B3D6"/>
<stop offset="1" stop-color="#E9EFF4" stop-opacity="0"/>
</linearGradient>
<linearGradient id="paint1_linear_5320_217" x1="530.663" y1="414.032" x2="530.663" y2="636.642" gradientUnits="userSpaceOnUse">
<stop stop-color="#E9EFF4" stop-opacity="0"/>
<stop offset="0.25" stop-color="#FEFEFF"/>
<stop offset="0.5" stop-color="#E9EFF4" stop-opacity="0"/>
<stop offset="0.75" stop-color="#A6B3D6"/>
<stop offset="1" stop-color="#E9EFF4" stop-opacity="0"/>
</linearGradient>
<linearGradient id="paint2_linear_5320_217" x1="530.663" y1="384.742" x2="530.663" y2="665.933" gradientUnits="userSpaceOnUse">
<stop stop-color="#E9EFF4" stop-opacity="0"/>
<stop offset="0.25" stop-color="#FEFEFF"/>
<stop offset="0.5" stop-color="#E9EFF4" stop-opacity="0"/>
<stop offset="0.75" stop-color="#A6B3D6"/>
<stop offset="1" stop-color="#E9EFF4" stop-opacity="0"/>
</linearGradient>
<linearGradient id="paint3_linear_5320_217" x1="530.663" y1="355.451" x2="530.663" y2="695.224" gradientUnits="userSpaceOnUse">
<stop stop-color="#E9EFF4" stop-opacity="0"/>
<stop offset="0.25" stop-color="#FEFEFF"/>
<stop offset="0.5" stop-color="#E9EFF4" stop-opacity="0"/>
<stop offset="0.75" stop-color="#A6B3D6"/>
<stop offset="1" stop-color="#E9EFF4" stop-opacity="0"/>
</linearGradient>
<linearGradient id="paint4_linear_5320_217" x1="703.5" y1="573.5" x2="605.5" y2="687.5" gradientUnits="userSpaceOnUse">
<stop offset="0.216714" stop-color="#DDAE57" stop-opacity="0.6"/>
<stop offset="0.834226" stop-color="#E9EFF4" stop-opacity="0"/>
</linearGradient>
<linearGradient id="paint5_linear_5320_217" x1="530.663" y1="326.16" x2="530.663" y2="724.515" gradientUnits="userSpaceOnUse">
<stop stop-color="#E9EFF4" stop-opacity="0"/>
<stop offset="0.25" stop-color="#FEFEFF"/>
<stop offset="0.5" stop-color="#E9EFF4" stop-opacity="0"/>
<stop offset="0.75" stop-color="#A6B3D6"/>
<stop offset="1" stop-color="#E9EFF4" stop-opacity="0"/>
</linearGradient>
<linearGradient id="paint6_linear_5320_217" x1="530.663" y1="296.869" x2="530.663" y2="753.806" gradientUnits="userSpaceOnUse">
<stop stop-color="#E9EFF4" stop-opacity="0"/>
<stop offset="0.25" stop-color="#FEFEFF"/>
<stop offset="0.5" stop-color="#E9EFF4" stop-opacity="0"/>
<stop offset="0.75" stop-color="#A6B3D6"/>
<stop offset="1" stop-color="#E9EFF4" stop-opacity="0"/>
</linearGradient>
<linearGradient id="paint7_linear_5320_217" x1="490" y1="302.5" x2="381" y2="354.5" gradientUnits="userSpaceOnUse">
<stop stop-color="#E9EFF4" stop-opacity="0"/>
<stop offset="1" stop-color="#DEAF58" stop-opacity="0.7"/>
</linearGradient>
<linearGradient id="paint8_linear_5320_217" x1="530.663" y1="267.578" x2="530.663" y2="783.097" gradientUnits="userSpaceOnUse">
<stop stop-color="#E9EFF4" stop-opacity="0"/>
<stop offset="0.25" stop-color="#FEFEFF"/>
<stop offset="0.5" stop-color="#E9EFF4" stop-opacity="0"/>
<stop offset="0.75" stop-color="#A6B3D6"/>
<stop offset="1" stop-color="#E9EFF4" stop-opacity="0"/>
</linearGradient>
<linearGradient id="paint9_linear_5320_217" x1="530.663" y1="238.287" x2="530.663" y2="812.387" gradientUnits="userSpaceOnUse">
<stop stop-color="#E9EFF4" stop-opacity="0"/>
<stop offset="0.25" stop-color="#FEFEFF"/>
<stop offset="0.5" stop-color="#E9EFF4" stop-opacity="0"/>
<stop offset="0.75" stop-color="#A6B3D6"/>
<stop offset="1" stop-color="#E9EFF4" stop-opacity="0"/>
</linearGradient>
<linearGradient id="paint10_linear_5320_217" x1="530.663" y1="208.997" x2="530.663" y2="841.678" gradientUnits="userSpaceOnUse">
<stop stop-color="#E9EFF4" stop-opacity="0"/>
<stop offset="0.25" stop-color="#FEFEFF"/>
<stop offset="0.5" stop-color="#E9EFF4" stop-opacity="0"/>
<stop offset="0.75" stop-color="#A6B3D6"/>
<stop offset="1" stop-color="#E9EFF4" stop-opacity="0"/>
</linearGradient>
<linearGradient id="paint11_linear_5320_217" x1="530.663" y1="179.706" x2="530.663" y2="870.969" gradientUnits="userSpaceOnUse">
<stop stop-color="#E9EFF4" stop-opacity="0"/>
<stop offset="0.25" stop-color="#FEFEFF"/>
<stop offset="0.5" stop-color="#E9EFF4" stop-opacity="0"/>
<stop offset="0.75" stop-color="#A6B3D6"/>
<stop offset="1" stop-color="#E9EFF4" stop-opacity="0"/>
</linearGradient>
<linearGradient id="paint12_linear_5320_217" x1="530.662" y1="150.415" x2="530.662" y2="900.26" gradientUnits="userSpaceOnUse">
<stop stop-color="#E9EFF4" stop-opacity="0"/>
<stop offset="0.25" stop-color="#FEFEFF"/>
<stop offset="0.5" stop-color="#E9EFF4" stop-opacity="0"/>
<stop offset="0.75" stop-color="#A6B3D6"/>
<stop offset="1" stop-color="#E9EFF4" stop-opacity="0"/>
</linearGradient>
<linearGradient id="paint13_linear_5320_217" x1="530.663" y1="121.124" x2="530.663" y2="929.551" gradientUnits="userSpaceOnUse">
<stop stop-color="#E9EFF4" stop-opacity="0"/>
<stop offset="0.25" stop-color="#FEFEFF"/>
<stop offset="0.5" stop-color="#E9EFF4" stop-opacity="0"/>
<stop offset="0.75" stop-color="#A6B3D6"/>
<stop offset="1" stop-color="#E9EFF4" stop-opacity="0"/>
</linearGradient>
<linearGradient id="paint14_linear_5320_217" x1="530.663" y1="91.8335" x2="530.663" y2="958.841" gradientUnits="userSpaceOnUse">
<stop stop-color="#E9EFF4" stop-opacity="0"/>
<stop offset="0.25" stop-color="#FEFEFF"/>
<stop offset="0.5" stop-color="#E9EFF4" stop-opacity="0"/>
<stop offset="0.75" stop-color="#A6B3D6"/>
<stop offset="1" stop-color="#E9EFF4" stop-opacity="0"/>
</linearGradient>
<linearGradient id="paint15_linear_5320_217" x1="530.663" y1="62.5426" x2="530.663" y2="988.132" gradientUnits="userSpaceOnUse">
<stop stop-color="#E9EFF4" stop-opacity="0"/>
<stop offset="0.25" stop-color="#FEFEFF"/>
<stop offset="0.5" stop-color="#E9EFF4" stop-opacity="0"/>
<stop offset="0.75" stop-color="#A6B3D6"/>
<stop offset="1" stop-color="#E9EFF4" stop-opacity="0"/>
</linearGradient>
<linearGradient id="paint16_linear_5320_217" x1="93.5" y1="675.5" x2="169.5" y2="814" gradientUnits="userSpaceOnUse">
<stop stop-color="#E9EFF4" stop-opacity="0"/>
<stop offset="1" stop-color="#DDAE57" stop-opacity="0.8"/>
</linearGradient>
<linearGradient id="paint17_linear_5320_217" x1="530.663" y1="33.2518" x2="530.663" y2="1017.42" gradientUnits="userSpaceOnUse">
<stop stop-color="#E9EFF4" stop-opacity="0"/>
<stop offset="0.25" stop-color="#FEFEFF"/>
<stop offset="0.5" stop-color="#E9EFF4" stop-opacity="0"/>
<stop offset="0.75" stop-color="#A6B3D6"/>
<stop offset="1" stop-color="#E9EFF4" stop-opacity="0"/>
</linearGradient>
<linearGradient id="paint18_linear_5320_217" x1="1010" y1="598" x2="967.5" y2="756.5" gradientUnits="userSpaceOnUse">
<stop offset="0.200711" stop-color="#DDAE57" stop-opacity="0.7"/>
<stop offset="1" stop-color="#E9EFF4" stop-opacity="0"/>
</linearGradient>
<linearGradient id="paint19_linear_5320_217" x1="530.663" y1="3.96106" x2="530.663" y2="1046.71" gradientUnits="userSpaceOnUse">
<stop stop-color="#E9EFF4" stop-opacity="0"/>
<stop offset="0.25" stop-color="#FEFEFF"/>
<stop offset="0.5" stop-color="#E9EFF4" stop-opacity="0"/>
<stop offset="0.75" stop-color="#A6B3D6"/>
<stop offset="1" stop-color="#E9EFF4" stop-opacity="0"/>
</linearGradient>
<clipPath id="clip0_5320_217">
<rect width="1061" height="1049" fill="white"/>
</clipPath>
</defs>
</svg>
