<svg width="40" height="30" viewBox="0 0 40 30" fill="none" xmlns="http://www.w3.org/2000/svg">
<path d="M25.9184 16.771L22.5683 20.3565C21.2098 21.8107 18.8195 21.842 17.4316 20.3565L14.0813 16.771L2.04883 29.6474C2.49672 29.8683 2.99055 30.0001 3.51555 30.0001H36.4843C37.0093 30.0001 37.503 29.8684 37.9507 29.6474L25.9184 16.771Z" fill="#1A367C"/>
<path d="M36.4844 0H3.51562C2.99062 0 2.4968 0.131834 2.04906 0.352751L14.9066 14.113C14.9075 14.114 14.9085 14.1141 14.9094 14.115C14.9099 14.1156 14.9103 14.1164 14.9104 14.1172L19.0911 18.5914C19.5352 19.0651 20.465 19.0651 20.9091 18.5914L25.0889 14.118C25.0889 14.118 25.0899 14.116 25.0908 14.115C25.0908 14.115 25.0927 14.114 25.0935 14.113L37.9508 0.352668C37.503 0.131667 37.0094 0 36.4844 0ZM0.373906 2.10101C0.142187 2.60084 0 3.15568 0 3.75001V26.2501C0 26.8444 0.142031 27.3992 0.373828 27.8991L12.4272 15.0005L0.373906 2.10101ZM39.6261 2.10084L27.5729 15.0005L39.6261 27.8992C39.8578 27.3994 40 26.8446 40 26.2501V3.75001C40 3.15551 39.8578 2.60067 39.6261 2.10084Z" fill="#1A367C"/>
</svg>
