<svg width="160" height="148" viewBox="0 0 160 148" fill="none" xmlns="http://www.w3.org/2000/svg">
<g filter="url(#filter0_f_1452_952)">
<rect x="45" y="45" width="70" height="58" rx="29" fill="#DDAE57"/>
</g>
<rect x="38" y="10" width="84" height="84" rx="17" fill="#DDAE57" stroke="url(#paint0_linear_1452_952)" stroke-width="2"/>
<path d="M81.7645 70.1686C81.7645 72.6854 79.7494 74.9998 77.2645 74.9998C74.7796 74.9998 72.7645 72.6854 72.7645 70.1686C72.7645 67.6518 77.2645 60.7798 77.2645 60.7798C77.2645 60.7798 81.7645 67.6518 81.7645 70.1686Z" stroke="white" stroke-width="2.2" stroke-miterlimit="10" stroke-linecap="round" stroke-linejoin="round"/>
<path d="M72.7647 56.1598C72.7647 59.2087 70.3552 61.6798 67.3824 61.6798C64.4095 61.6798 62 59.2087 62 56.1598C62 53.1109 67.3824 45.1198 67.3824 45.1198C67.3824 45.1198 72.7647 53.1109 72.7647 56.1598Z" stroke="white" stroke-width="2.2" stroke-miterlimit="10" stroke-linecap="round" stroke-linejoin="round"/>
<path d="M79.2731 46.869C81.8201 40.004 88.1105 29.9996 88.1105 29.9996C88.1105 29.9996 97.9999 45.7281 97.9999 51.2753C97.9999 56.8225 93.5722 61.3196 88.1105 61.3196C83.5771 61.3196 79.756 58.2212 78.5882 53.9957" stroke="white" stroke-width="2.2" stroke-miterlimit="10" stroke-linecap="round" stroke-linejoin="round"/>
<path d="M94.4707 51.2395C94.4707 54.8118 91.62 57.7195 88.1177 57.7195" stroke="white" stroke-width="2.2" stroke-miterlimit="10" stroke-linecap="round" stroke-linejoin="round"/>
<defs>
<filter id="filter0_f_1452_952" x="0" y="0" width="160" height="148" filterUnits="userSpaceOnUse" color-interpolation-filters="sRGB">
<feFlood flood-opacity="0" result="BackgroundImageFix"/>
<feBlend mode="normal" in="SourceGraphic" in2="BackgroundImageFix" result="shape"/>
<feGaussianBlur stdDeviation="22.5" result="effect1_foregroundBlur_1452_952"/>
</filter>
<linearGradient id="paint0_linear_1452_952" x1="80" y1="9" x2="80" y2="95" gradientUnits="userSpaceOnUse">
<stop offset="0.425" stop-color="#E9D9BC"/>
<stop offset="1" stop-color="#D29E3E"/>
</linearGradient>
</defs>
</svg>
