<svg width="160" height="148" viewBox="0 0 160 148" fill="none" xmlns="http://www.w3.org/2000/svg">
<g filter="url(#filter0_f_1452_951)">
<rect x="45" y="45" width="70" height="58" rx="29" fill="#DDAE57"/>
</g>
<rect x="38" y="10" width="84" height="84" rx="17" fill="#DDAE57" stroke="url(#paint0_linear_1452_951)" stroke-width="2"/>
<g clip-path="url(#clip0_1452_951)">
<path d="M94.1194 42.6511C94.6121 43.2726 95.0578 44.0424 95.3817 44.7786C95.7222 45.5568 95.9352 46.321 95.9352 46.8836C95.9358 47.2016 95.874 47.5165 95.7533 47.8101C95.6326 48.1037 95.4555 48.3702 95.2322 48.594C95.0108 48.8198 94.7473 48.999 94.457 49.121C94.1667 49.2431 93.8552 49.3056 93.5408 49.3051C93.2264 49.3056 92.915 49.2431 92.6247 49.121C92.3343 48.999 92.0709 48.8198 91.8495 48.594C91.4148 48.1574 91.1491 47.5527 91.1491 46.8836C91.1491 46.3209 91.3595 45.5568 91.7026 44.7786C92.0267 44.0368 92.4778 43.2643 92.9707 42.6371C93.2695 42.262 93.8343 42.2733 94.1194 42.6511ZM81.1778 39.0148V32.7248H74.3319V39.0148H81.1778ZM72.8675 39.0233V31.9857C72.8674 31.8882 72.8863 31.7918 72.9232 31.7017C72.96 31.6117 73.0141 31.5299 73.0822 31.461C73.1503 31.3921 73.2312 31.3374 73.3203 31.3002C73.4093 31.2629 73.5047 31.2438 73.6011 31.2439H74.2406V30.4993C74.2406 29.9085 74.4787 29.3711 74.8636 28.9819C75.2482 28.5929 75.7797 28.3522 76.364 28.3522H79.146C79.73 28.3522 80.2616 28.5929 80.6463 28.982C81.0309 29.3711 81.2692 29.9086 81.2692 30.4994V31.244H81.9114C82.3156 31.244 82.6421 31.577 82.6421 31.9858V33.6848H85.6041C86.0083 33.6848 86.3379 34.0152 86.3379 34.4239C86.3379 34.8326 86.0083 35.1657 85.6041 35.1657H82.6421V36.5766H90.681C91.2514 36.5766 91.8049 36.8117 92.2063 37.2176C92.6106 37.6264 92.8432 38.1862 92.8432 38.7628V39.4683H94.2384V38.7628C94.2384 37.8026 93.8674 36.9012 93.1946 36.221C92.5219 35.5408 91.6305 35.1656 90.681 35.1656H88.9232C88.519 35.1656 88.1896 34.8324 88.1896 34.4238C88.1896 34.0151 88.519 33.6847 88.9232 33.6847H90.681C92.0126 33.6847 93.2889 34.2222 94.23 35.174C95.1713 36.1258 95.7026 37.4163 95.7026 38.7627V40.2099C95.7027 40.307 95.6839 40.4031 95.6472 40.4928C95.6105 40.5825 95.5567 40.664 95.4889 40.7326C95.421 40.8013 95.3404 40.8557 95.2517 40.8928C95.163 40.9299 95.0679 40.949 94.972 40.9489H92.1122C91.7054 40.9489 91.3786 40.6186 91.3786 40.2099V38.7627C91.3786 38.5695 91.3067 38.4016 91.1711 38.2672C91.0382 38.13 90.8721 38.0572 90.681 38.0572H82.6421V39.023C83.1708 39.0621 83.6471 39.2973 84.0013 39.6556C84.3944 40.0531 84.6353 40.599 84.6353 41.2008C84.6353 41.8027 84.3944 42.3513 84.0013 42.746C83.6102 43.1448 83.0813 43.3747 82.526 43.3871V44.0478C82.526 45.982 84.3225 46.6203 86.0775 47.2417C88.2368 48.006 90.3462 48.7534 90.3462 51.4239V53.7194C90.5553 53.8135 90.7458 53.9453 90.9081 54.1085C91.2403 54.4445 91.4452 54.9063 91.4452 55.4158V57.6357C91.4452 58.1451 91.2403 58.6098 90.9081 58.9429C90.7465 59.107 90.5559 59.239 90.3462 59.332V65.3087C90.5553 65.4027 90.7458 65.5345 90.9081 65.6977C91.2403 66.0336 91.4452 66.4956 91.4452 67.005V69.2249C91.4452 69.7344 91.2403 70.1991 90.9081 70.5322C90.7465 70.6963 90.5559 70.8283 90.3462 70.9213V75.8005C90.3462 76.657 90.0002 77.4381 89.4438 78.0008C88.8873 78.5635 88.1179 78.9133 87.268 78.9133H84.6104C84.2061 78.9133 83.8767 78.583 83.8767 78.1743C83.8767 77.7656 84.2061 77.4324 84.6104 77.4324H87.268C87.7108 77.4324 88.115 77.2505 88.4086 76.9538C88.5587 76.8025 88.6777 76.6228 88.7589 76.4248C88.8401 76.2269 88.8819 76.0147 88.8818 75.8005V71.0752H79.9099V74.8571C79.9099 75.2658 79.5806 75.596 79.1764 75.596H76.3335C75.9293 75.596 75.5998 75.2657 75.5998 74.8571V71.0752H66.6278V75.8005C66.6278 76.2484 66.8105 76.657 67.1013 76.9538C67.2509 77.1056 67.4286 77.2261 67.6244 77.3082C67.8202 77.3903 68.03 77.4326 68.242 77.4324H81.2914C81.6956 77.4324 82.025 77.7656 82.025 78.1743C82.025 78.583 81.6956 78.9133 81.2914 78.9133H68.242C67.3946 78.9133 66.6252 78.5635 66.066 78.0008C65.5097 77.4381 65.1637 76.657 65.1637 75.8005V70.9216C64.9539 70.8286 64.7632 70.6966 64.6016 70.5325C64.4311 70.3613 64.2959 70.1576 64.2037 69.9332C64.1115 69.7088 64.0643 69.4682 64.0646 69.2252V67.0053C64.0646 66.4959 64.2695 66.034 64.6016 65.698C64.7639 65.5348 64.9544 65.403 65.1637 65.309V59.3323C64.9539 59.2393 64.7632 59.1073 64.6016 58.9432C64.4311 58.772 64.2959 58.5683 64.2037 58.3439C64.1116 58.1196 64.0643 57.8789 64.0646 57.636V55.4161C64.0646 54.9066 64.2695 54.4448 64.6016 54.1088C64.764 53.9456 64.9544 53.8137 65.1637 53.7197V51.4242C65.1637 50.506 65.4431 49.7922 65.9109 49.2184C66.3538 48.6725 66.9435 48.2806 67.608 47.9587C67.6949 47.9167 67.7891 47.8925 67.8852 47.8874C67.9813 47.8823 68.0775 47.8964 68.1683 47.9289C68.259 47.9614 68.3425 48.0116 68.4141 48.0768C68.4856 48.1419 68.5437 48.2207 68.5851 48.3085C68.7568 48.6781 68.6017 49.1204 68.2392 49.2967C67.7436 49.5347 67.3201 49.8061 67.0376 50.1533C66.783 50.4697 66.6279 50.8783 66.6279 51.4242V53.5658H75.5998V43.3874H74.4483V44.0481C74.4483 45.2069 74.0689 46.058 73.4573 46.7214C72.8842 47.3456 72.1258 47.7684 71.3035 48.1126C71.1247 48.1877 70.9238 48.1881 70.7447 48.1136C70.5657 48.0391 70.4232 47.8958 70.3485 47.7151C70.1934 47.3372 70.3707 46.9033 70.7416 46.7465C71.3948 46.4721 71.9847 46.1531 72.3888 45.7135C72.754 45.316 72.9839 44.7869 72.9839 44.048V43.3873C72.4285 43.3749 71.8996 43.1451 71.5084 42.7462C71.1153 42.3515 70.8746 41.8028 70.8746 41.201C70.8746 40.5992 71.1153 40.0533 71.5084 39.6558C71.8627 39.2975 72.3388 39.0624 72.8675 39.0233ZM65.8943 69.5946H89.6153C89.715 69.5946 89.8064 69.5527 89.8728 69.4855C89.9392 69.4184 89.9808 69.3259 89.9808 69.2252V67.0053C89.9806 66.9569 89.9709 66.909 89.9524 66.8643C89.9339 66.8197 89.9069 66.7791 89.8728 66.745C89.8391 66.7106 89.799 66.6832 89.7548 66.6645C89.7106 66.6458 89.6632 66.6361 89.6153 66.6359H65.8943C65.7975 66.6359 65.706 66.6751 65.6368 66.745C65.6028 66.7791 65.5757 66.8196 65.5572 66.8643C65.5387 66.909 65.5291 66.9569 65.5289 67.0053V69.2252C65.5289 69.326 65.5705 69.4184 65.6368 69.4855C65.7049 69.555 65.7976 69.5942 65.8943 69.5946ZM66.6278 65.1549H75.5997V59.4863H66.6278V65.1549ZM79.9099 65.1549H88.8817V59.4863H79.9099V65.1549ZM65.8943 58.0055H89.6153C89.6632 58.0053 89.7106 57.9956 89.7548 57.9769C89.799 57.9581 89.8391 57.9308 89.8728 57.8964C89.9069 57.8623 89.9339 57.8217 89.9524 57.7771C89.9709 57.7324 89.9806 57.6845 89.9808 57.6361V55.4162C89.9806 55.3678 89.9709 55.3198 89.9524 55.2752C89.9339 55.2305 89.9069 55.19 89.8728 55.1559C89.8391 55.1215 89.799 55.0941 89.7548 55.0754C89.7106 55.0566 89.6632 55.0469 89.6153 55.0468H65.8943C65.7947 55.0468 65.7034 55.0887 65.6368 55.1559C65.6028 55.19 65.5757 55.2305 65.5572 55.2752C65.5387 55.3198 65.5291 55.3678 65.5289 55.4162V57.6361C65.5289 57.7368 65.5705 57.8292 65.6368 57.8964C65.7049 57.9658 65.7976 58.0051 65.8943 58.0055ZM79.9099 53.5658H88.8817V51.4242C88.8817 49.7978 87.2568 49.224 85.596 48.6361C83.3536 47.8412 81.0615 47.0293 81.0615 44.0481V43.3874H79.9099V53.5658ZM79.8048 31.244V30.4994C79.8048 30.3174 79.73 30.1521 79.611 30.029C79.4878 29.904 79.3205 29.8336 79.146 29.8331H76.364C76.1839 29.8331 76.0206 29.9086 75.8989 30.029C75.7797 30.1521 75.7051 30.3173 75.7051 30.4994V31.244H79.8048ZM82.4733 40.4957H73.0364C72.8453 40.4957 72.671 40.5769 72.5435 40.7057C72.4785 40.7703 72.4268 40.8474 72.3916 40.9325C72.3564 41.0175 72.3384 41.1089 72.3387 41.2011C72.3387 41.2937 72.3568 41.3854 72.3919 41.4709C72.4271 41.5564 72.4786 41.6341 72.5435 41.6994C72.6081 41.7651 72.6849 41.8172 72.7695 41.8528C72.8541 41.8883 72.9448 41.9066 73.0364 41.9066H82.4733C82.5649 41.9066 82.6556 41.8883 82.7401 41.8527C82.8247 41.8172 82.9014 41.7651 82.966 41.6994C83.0934 41.5706 83.1709 41.3943 83.1709 41.2011C83.1709 41.0079 83.0934 40.8316 82.966 40.7057C82.8388 40.5768 82.6642 40.4957 82.4733 40.4957ZM78.4456 43.3874H77.0642V53.5658H78.4456V43.3874ZM78.4456 65.1549V59.4863H77.0642V65.1549H78.4456ZM78.4456 74.1156V71.0755H77.0642V74.1156H78.4456ZM94.0474 45.3749C93.8989 45.0379 93.7297 44.7107 93.5407 44.3952C93.3519 44.7108 93.1827 45.038 93.0341 45.3749C92.7739 45.9683 92.6133 46.5198 92.6133 46.8837C92.6133 47.1441 92.7157 47.3792 92.8847 47.5473C92.9707 47.6344 93.073 47.7036 93.1856 47.7506C93.2981 47.7977 93.4188 47.8218 93.5406 47.8216C93.7981 47.8216 94.0307 47.718 94.1968 47.5473C94.3655 47.3793 94.468 47.1442 94.468 46.8837C94.4681 46.5198 94.3077 45.9683 94.0474 45.3749Z" fill="white"/>
</g>
<defs>
<filter id="filter0_f_1452_951" x="0" y="0" width="160" height="148" filterUnits="userSpaceOnUse" color-interpolation-filters="sRGB">
<feFlood flood-opacity="0" result="BackgroundImageFix"/>
<feBlend mode="normal" in="SourceGraphic" in2="BackgroundImageFix" result="shape"/>
<feGaussianBlur stdDeviation="22.5" result="effect1_foregroundBlur_1452_951"/>
</filter>
<linearGradient id="paint0_linear_1452_951" x1="80" y1="9" x2="80" y2="95" gradientUnits="userSpaceOnUse">
<stop offset="0.425" stop-color="#E9D9BC"/>
<stop offset="1" stop-color="#D29E3E"/>
</linearGradient>
<clipPath id="clip0_1452_951">
<rect width="50" height="50.5615" fill="white" transform="translate(55 28.3522)"/>
</clipPath>
</defs>
</svg>
