<svg width="168" height="162" viewBox="0 0 168 162" fill="none" xmlns="http://www.w3.org/2000/svg">
<g filter="url(#filter0_f_1452_950)">
<rect x="45" y="45" width="78" height="72" rx="36" fill="#DDAE57"/>
</g>
<rect x="42" y="24" width="84" height="84" rx="17" fill="#DDAE57" stroke="url(#paint0_linear_1452_950)" stroke-width="2"/>
<g clip-path="url(#clip0_1452_950)">
<path d="M92.7969 60.4814L92.7894 60.4716L84.6851 50.0361C84.6086 49.9377 84.5107 49.8579 84.3988 49.803C84.2869 49.748 84.1639 49.7193 84.0392 49.719H84.0373C83.913 49.719 83.7902 49.7473 83.6784 49.8017C83.5666 49.8561 83.4686 49.9353 83.3919 50.0332L75.2519 60.4139C75.2373 60.4325 75.2236 60.4516 75.2108 60.4712C73.5796 62.4802 72.6826 65.0083 72.6826 67.6016C72.6826 73.8422 77.7596 78.9192 84.0001 78.9192C90.2406 78.9192 95.3176 73.8422 95.3176 67.6016C95.3176 65.0151 94.4227 62.4879 92.7969 60.4814ZM84 77.2787C78.664 77.2787 74.3229 72.9375 74.3229 67.6016C74.3229 65.357 75.1088 63.1697 76.5357 61.4424C76.5591 61.4141 76.5804 61.3845 76.5994 61.3539L84.0342 51.8725L91.4748 61.4532C91.4844 61.4667 91.4945 61.4798 91.5051 61.4928C92.9058 63.2114 93.6771 65.3809 93.6771 67.6016C93.6771 72.9375 89.336 77.2787 84 77.2787Z" fill="white"/>
<path d="M91.3794 68.3191C90.9385 68.2151 90.4967 68.4883 90.3928 68.9292C89.9256 70.9113 88.5192 72.5583 86.6312 73.3349C86.2123 73.5073 86.0123 73.9866 86.1848 74.4055C86.2675 74.6067 86.4268 74.7668 86.6276 74.8505C86.8284 74.9342 87.0542 74.9348 87.2554 74.852C89.6315 73.8746 91.4013 71.8012 91.9897 69.3057C92.0935 68.8647 91.8202 68.4231 91.3794 68.3191ZM91.3821 64.9917C90.9292 64.9917 90.5619 65.359 90.5619 65.8119V65.8286C90.5619 66.2816 90.9292 66.6488 91.3821 66.6488C91.835 66.6488 92.2023 66.2816 92.2023 65.8286V65.8119C92.2023 65.359 91.835 64.9917 91.3821 64.9917ZM94.0658 47.7018L92.9194 45.7161C92.6929 45.3238 92.1915 45.1894 91.7989 45.4159C91.4637 45.6094 91.3178 46.0034 91.4232 46.3589C87.4849 44.8725 83.1908 44.6036 79.0978 45.5871C74.1608 46.7737 69.8246 49.7046 66.8884 53.8401C63.9807 57.9353 62.6319 62.931 63.0907 67.9068C63.13 68.3323 63.4875 68.6518 63.9065 68.6517C63.9318 68.6517 63.9572 68.6506 63.9828 68.6482C64.4339 68.6066 64.7659 68.2073 64.7243 67.7561C63.8486 58.2595 70.1926 49.4146 79.4811 47.1822C83.5292 46.2093 87.7749 46.5709 91.58 48.1898L90.9597 48.5481C90.5674 48.7746 90.433 49.2762 90.6595 49.6685C90.7133 49.7618 90.785 49.8436 90.8705 49.9092C90.9559 49.9748 91.0535 50.0229 91.1575 50.0508C91.2616 50.0787 91.3701 50.0858 91.4769 50.0717C91.5837 50.0576 91.6867 50.0226 91.78 49.9687L93.7656 48.8222C94.1579 48.5958 94.2923 48.0941 94.0658 47.7018Z" fill="white"/>
<path d="M104.813 63.2222C104.753 62.7733 104.34 62.458 103.891 62.5184C103.442 62.5787 103.127 62.9915 103.187 63.4405C104.456 72.8927 98.4846 81.9932 89.2966 84.6093C85.3625 85.7295 81.2813 85.5904 77.4588 84.2128L78.2344 83.721C78.617 83.4784 78.7303 82.9717 78.4879 82.5891C78.2453 82.2065 77.7386 82.0931 77.3558 82.3356L75.4196 83.5634C75.0372 83.8059 74.9237 84.3122 75.1658 84.6948L76.3813 86.6153C76.4553 86.7323 76.5577 86.8287 76.679 86.8955C76.8004 86.9622 76.9366 86.9971 77.0751 86.9969C77.2302 86.997 77.3821 86.9528 77.513 86.8696C77.7873 86.6961 77.9225 86.3867 77.8885 86.0844C79.877 86.6933 81.9204 87 83.9725 87C85.9026 87 87.8404 86.7295 89.7459 86.187C94.6296 84.7965 98.8402 81.6881 101.602 77.4344C104.338 73.222 105.478 68.1746 104.813 63.2222ZM74.0905 75.7613L74.0875 75.7572L69.908 70.2599C69.8317 70.1596 69.7333 70.0781 69.6203 70.0219C69.5074 69.9658 69.3831 69.9364 69.257 69.9361H69.2551C69.1293 69.9361 69.0052 69.965 68.8923 70.0207C68.7795 70.0763 68.681 70.1571 68.6044 70.2569L64.4065 75.7253C64.3968 75.7381 64.3874 75.751 64.3785 75.7642C63.4903 76.8881 63.0021 78.2985 63.0021 79.7446C63.0021 83.246 65.7986 86.0946 69.2358 86.0946C72.673 86.0946 75.4695 83.2459 75.4695 79.7446C75.4695 78.2987 74.98 76.8851 74.0905 75.7613ZM69.2358 84.4541C66.703 84.4541 64.6425 82.3414 64.6425 79.7446C64.6425 78.649 65.0174 77.5822 65.6982 76.7407C65.7162 76.7184 65.7329 76.6954 65.7482 76.6717L69.252 72.1075L72.7675 76.7316C72.7757 76.743 72.7841 76.7542 72.793 76.7652C73.4611 77.6026 73.8292 78.6608 73.8292 79.7446C73.8291 82.3414 71.7686 84.4541 69.2358 84.4541Z" fill="white"/>
<path d="M71.9425 78.9244C71.4896 78.9244 71.1223 79.2916 71.1223 79.7446C71.1223 80.8169 70.2761 81.6893 69.2358 81.6893C68.7829 81.6893 68.4155 82.0566 68.4155 82.5095C68.4155 82.9625 68.7829 83.3298 69.2358 83.3298C71.1806 83.3298 72.7628 81.7215 72.7628 79.7446C72.7628 79.2916 72.3955 78.9244 71.9425 78.9244ZM103.619 50.8251L103.616 50.821L99.4364 45.3239C99.36 45.2235 99.2616 45.142 99.1487 45.0859C99.0358 45.0297 98.9114 45.0003 98.7853 45H98.7834C98.6576 45 98.5335 45.029 98.4207 45.0846C98.3079 45.1402 98.2093 45.221 98.1327 45.3208L93.9349 50.7892C93.9252 50.8017 93.916 50.8146 93.9071 50.8277C93.0187 51.9516 92.5304 53.3622 92.5304 54.8084C92.5304 58.3098 95.3269 61.1584 98.7641 61.1584C102.201 61.1584 104.998 58.3097 104.998 54.8084C104.998 53.3625 104.508 51.9489 103.619 50.8251ZM98.7641 59.518C96.2313 59.518 94.1709 57.4053 94.1709 54.8084C94.1709 53.7129 94.5458 52.6461 95.2265 51.8045C95.2443 51.7823 95.2609 51.7595 95.2762 51.736L98.7803 47.1714L102.296 51.7954C102.304 51.8068 102.312 51.818 102.321 51.829C102.989 52.6665 103.358 53.7246 103.358 54.8084C103.357 57.4053 101.297 59.518 98.7641 59.518Z" fill="white"/>
<path d="M101.471 53.9883C101.018 53.9883 100.651 54.3555 100.651 54.8085C100.651 55.8808 99.8045 56.7532 98.7641 56.7532C98.3112 56.7532 97.9439 57.1205 97.9439 57.5735C97.9439 58.0264 98.3112 58.3937 98.7641 58.3937C100.709 58.3937 102.291 56.7854 102.291 54.8085C102.291 54.3555 101.924 53.9883 101.471 53.9883Z" fill="white"/>
</g>
<defs>
<filter id="filter0_f_1452_950" x="0" y="0" width="168" height="162" filterUnits="userSpaceOnUse" color-interpolation-filters="sRGB">
<feFlood flood-opacity="0" result="BackgroundImageFix"/>
<feBlend mode="normal" in="SourceGraphic" in2="BackgroundImageFix" result="shape"/>
<feGaussianBlur stdDeviation="22.5" result="effect1_foregroundBlur_1452_950"/>
</filter>
<linearGradient id="paint0_linear_1452_950" x1="84" y1="23" x2="84" y2="109" gradientUnits="userSpaceOnUse">
<stop offset="0.425" stop-color="#E9D9BC"/>
<stop offset="1" stop-color="#D29E3E"/>
</linearGradient>
<clipPath id="clip0_1452_950">
<rect width="42" height="42" fill="white" transform="translate(63 45)"/>
</clipPath>
</defs>
</svg>
