<svg width="28" height="28" viewBox="0 0 28 28" fill="none" xmlns="http://www.w3.org/2000/svg">
<path d="M21.4247 20.2581L14 27.6827L6.57534 20.2581C5.1069 18.7896 4.10688 16.9187 3.70175 14.8819C3.29662 12.8451 3.50456 10.7339 4.29928 8.81529C5.09401 6.89667 6.43982 5.25681 8.16653 4.10306C9.89324 2.94931 11.9233 2.3335 14 2.3335C16.0767 2.3335 18.1068 2.94931 19.8335 4.10306C21.5602 5.25681 22.906 6.89667 23.7007 8.81529C24.4955 10.7339 24.7034 12.8451 24.2983 14.8819C23.8931 16.9187 22.8931 18.7896 21.4247 20.2581ZM14 15.1667C14.6188 15.1667 15.2123 14.9209 15.6499 14.4833C16.0875 14.0457 16.3333 13.4522 16.3333 12.8334C16.3333 12.2146 16.0875 11.6211 15.6499 11.1835C15.2123 10.7459 14.6188 10.5001 14 10.5001C13.3812 10.5001 12.7877 10.7459 12.3501 11.1835C11.9125 11.6211 11.6667 12.2146 11.6667 12.8334C11.6667 13.4522 11.9125 14.0457 12.3501 14.4833C12.7877 14.9209 13.3812 15.1667 14 15.1667Z" fill="white"/>
</svg>
