<svg width="160" height="160" viewBox="0 0 160 160" fill="none" xmlns="http://www.w3.org/2000/svg">
<rect width="160" height="160" rx="80" fill="#DDAE57"/>
<rect x="29" y="29" width="102" height="102" rx="51" stroke="white" stroke-opacity="0.3" stroke-width="2"/>
<path d="M75.105 76.2276H79.0833C81.2714 76.2276 83.3698 77.1065 84.917 78.6711C86.4641 80.2356 87.3333 82.3576 87.3333 84.5702H74.4982L74.5 86.4241H89.1667V84.5702C89.1609 82.5976 88.5973 80.6678 87.5423 79.0085H92.8333C94.5663 79.008 96.2639 79.5043 97.7293 80.4398C99.1947 81.3753 100.368 82.7117 101.113 84.294C96.7768 90.0801 89.757 93.8398 81.8333 93.8398C76.7715 93.8398 72.4833 92.746 69 90.8272V73.5783C71.2305 73.9014 73.3367 74.8154 75.105 76.2276ZM65.3333 71.5928C65.7824 71.5928 66.2158 71.7595 66.5513 72.0613C66.8869 72.363 67.1013 72.7788 67.1538 73.2298L67.1667 73.4467V90.132C67.1667 90.6237 66.9735 91.0952 66.6297 91.4429C66.2859 91.7906 65.8196 91.9859 65.3333 91.9859H61.6667C61.1804 91.9859 60.7141 91.7906 60.3703 91.4429C60.0265 91.0952 59.8333 90.6237 59.8333 90.132V73.4467C59.8333 72.955 60.0265 72.4834 60.3703 72.1358C60.7141 71.7881 61.1804 71.5928 61.6667 71.5928H65.3333ZM83.0177 61.5352L83.6667 62.1934L84.3157 61.5371C84.7406 61.1037 85.2461 60.7594 85.803 60.5241C86.3599 60.2887 86.9573 60.1669 87.5609 60.1657C88.1645 60.1644 88.7623 60.2838 89.3202 60.5168C89.8781 60.7498 90.3849 61.092 90.8116 61.5237C91.2384 61.9553 91.5766 62.4679 91.8069 63.0321C92.0372 63.5963 92.155 64.2009 92.1536 64.8113C92.1522 65.4216 92.0316 66.0257 91.7987 66.5888C91.5658 67.1519 91.2252 67.6629 90.7965 68.0926L83.6667 75.3006L76.535 68.0889C76.1064 67.6591 75.766 67.148 75.5332 66.5848C75.3005 66.0216 75.1801 65.4176 75.1788 64.8072C75.1776 64.1968 75.2956 63.5922 75.526 63.0281C75.7565 62.464 76.0948 61.9515 76.5217 61.5199C76.9486 61.0884 77.4555 60.7464 78.0134 60.5135C78.5713 60.2806 79.1692 60.1615 79.7728 60.1629C80.3764 60.1643 80.9738 60.2863 81.5306 60.5218C82.0874 60.7573 82.5928 61.1017 83.0177 61.5352Z" fill="white"/>
</svg>
