<svg width="36" height="36" viewBox="0 0 36 36" fill="none" xmlns="http://www.w3.org/2000/svg">
<path fill-rule="evenodd" clip-rule="evenodd" d="M36 18C36 27.9411 27.9411 36 18 36C8.05888 36 0 27.9411 0 18C0 8.05888 8.05888 0 18 0C27.9411 0 36 8.05888 36 18ZM18.841 12.4524C17.0903 13.1806 13.5912 14.6878 8.34382 16.974C7.49173 17.3128 7.04537 17.6443 7.00474 17.9685C6.93606 18.5162 7.62205 18.7319 8.55618 19.0257C8.68325 19.0656 8.81491 19.107 8.94989 19.1509C9.86894 19.4497 11.1052 19.7992 11.7479 19.813C12.3309 19.8256 12.9816 19.5853 13.6999 19.092C18.6027 15.7825 21.1336 14.1097 21.2924 14.0737C21.4045 14.0482 21.5599 14.0162 21.6651 14.1098C21.7704 14.2033 21.76 14.3805 21.7489 14.428C21.6809 14.7177 18.9882 17.2211 17.5947 18.5167C17.1602 18.9205 16.8521 19.207 16.7891 19.2725C16.648 19.419 16.5042 19.5577 16.366 19.6909C15.5121 20.514 14.8719 21.1312 16.4014 22.1392C17.1364 22.6236 17.7246 23.0241 18.3114 23.4237C18.9522 23.8601 19.5914 24.2954 20.4184 24.8375C20.6291 24.9756 20.8303 25.1191 21.0263 25.2588C21.7721 25.7905 22.4421 26.2681 23.2699 26.1919C23.7508 26.1477 24.2477 25.6954 24.5 24.3465C25.0963 21.1587 26.2684 14.2517 26.5393 11.4055C26.563 11.1561 26.5332 10.837 26.5092 10.6969C26.4852 10.5568 26.4351 10.3572 26.253 10.2094C26.0374 10.0344 25.7044 9.9975 25.5555 10.0001C24.8785 10.0121 23.8398 10.3732 18.841 12.4524Z" fill="#1A367C"/>
</svg>
